<svg width="1536" height="1024" version="1.1" xmlns="http://www.w3.org/2000/svg" desc="Created with imagetracer.js version 1.2.6" ><path fill="rgb(231,144,249)" stroke="rgb(231,144,249)" stroke-width="1" opacity="1" d="M 711.5 345 L 837 345.5 L 816.5 346 L 814.5 348 L 799.5 351 L 781.5 357 L 756.5 368 Q 709.1 393.1 674 430.5 Q 652.3 453.8 635 481.5 L 620 509.5 L 616 520.5 L 613.5 523 L 611 523 Q 612.3 526 608.5 525 L 605 523 L 604 528.5 L 598.5 535 L 597 534.5 L 596.5 542 L 595.5 527 L 594.5 600 L 594 461.5 L 595 460.5 L 595 451.5 L 598 436.5 L 605 416.5 Q 616.8 390.8 637.5 374 Q 651.8 361.8 670.5 354 L 693.5 347 L 710.5 346 L 711.5 345 Z M 607 518 L 606 522 L 607 522 L 607 518 Z " /><path fill="rgb(231,144,249)" stroke="rgb(231,144,249)" stroke-width="1" opacity="1" d="M 841.5 346 L 844 346.5 L 841.5 347 L 841.5 346 Z " /><path fill="rgb(231,144,249)" stroke="rgb(231,144,249)" stroke-width="1" opacity="1" d="M 898.5 369 L 899.5 371 L 898.5 369 Z " /><path fill="rgb(231,144,249)" stroke="rgb(231,144,249)" stroke-width="1" opacity="1" d="M 902.5 372 L 903.5 374 L 902.5 372 Z " /><path fill="rgb(231,144,249)" stroke="rgb(231,144,249)" stroke-width="1" opacity="1" d="M 911.5 380 L 913.5 383 L 911.5 380 Z " /><path fill="rgb(231,144,249)" stroke="rgb(231,144,249)" stroke-width="1" opacity="1" d="M 918.5 388 L 920.5 391 L 918.5 388 Z " /><path fill="rgb(231,144,249)" stroke="rgb(231,144,249)" stroke-width="1" opacity="1" d="M 922.5 393 L 923.5 395 L 922.5 393 Z " /><path fill="rgb(231,144,249)" stroke="rgb(231,144,249)" stroke-width="1" opacity="1" d="M 692.5 452 L 691.5 454 L 692.5 452 Z " /><path fill="rgb(231,144,249)" stroke="rgb(231,144,249)" stroke-width="1" opacity="1" d="M 826.5 453 L 825.5 455 L 826.5 453 Z " /><path fill="rgb(231,144,249)" stroke="rgb(231,144,249)" stroke-width="1" opacity="1" d="M 715.5 454 L 717.5 457 L 715.5 454 Z " /><path fill="rgb(231,144,249)" stroke="rgb(231,144,249)" stroke-width="1" opacity="1" d="M 688.5 456 L 687.5 458 L 688.5 456 Z " /><path fill="rgb(231,144,249)" stroke="rgb(231,144,249)" stroke-width="1" opacity="1" d="M 823.5 456 L 822.5 458 L 823.5 456 Z " /><path fill="rgb(231,144,249)" stroke="rgb(231,144,249)" stroke-width="1" opacity="1" d="M 686.5 459 L 685.5 461 L 686.5 459 Z " /><path fill="rgb(231,144,249)" stroke="rgb(231,144,249)" stroke-width="1" opacity="1" d="M 721.5 465 L 722 472.5 L 721 472.5 L 721.5 465 Z " /><path fill="rgb(231,144,249)" stroke="rgb(231,144,249)" stroke-width="1" opacity="1" d="M 789.5 466 L 790 472.5 L 789 472.5 L 789.5 466 Z " /><path fill="rgb(231,144,249)" stroke="rgb(231,144,249)" stroke-width="1" opacity="1" d="M 857.5 468 L 858 470.5 L 857 470.5 L 857.5 468 Z " /><path fill="rgb(231,144,249)" stroke="rgb(231,144,249)" stroke-width="1" opacity="1" d="M 754.5 479 L 755.5 481 L 754.5 479 Z " /><path fill="rgb(231,144,249)" stroke="rgb(231,144,249)" stroke-width="1" opacity="1" d="M 823.5 481 L 825.5 484 L 823.5 481 Z " /><path fill="rgb(231,144,249)" stroke="rgb(231,144,249)" stroke-width="1" opacity="1" d="M 690.5 483 L 691.5 485 L 690.5 483 Z " /><path fill="rgb(231,144,249)" stroke="rgb(231,144,249)" stroke-width="1" opacity="1" d="M 610.5 529 L 611 533 L 609 532.5 L 610.5 529 Z " /><path fill="rgb(231,144,249)" stroke="rgb(231,144,249)" stroke-width="1" opacity="1" d="M 609.5 534 L 610 535.5 L 608.5 539 L 608 536.5 L 609.5 534 Z " /><path fill="rgb(231,144,249)" stroke="rgb(231,144,249)" stroke-width="1" opacity="1" d="M 675.5 607 L 679 607.5 L 675.5 608 L 675.5 607 Z " /><path fill="rgb(231,144,249)" stroke="rgb(231,144,249)" stroke-width="1" opacity="1" d="M 648.5 622 L 647.5 624 L 648.5 622 Z " /><path fill="rgb(231,144,249)" stroke="rgb(231,144,249)" stroke-width="1" opacity="1" d="M 632.5 633 L 631.5 635 L 632.5 633 Z " /><path fill="rgb(231,144,249)" stroke="rgb(231,144,249)" stroke-width="1" opacity="1" d="M 629.5 635 L 628.5 637 L 629.5 635 Z " /><path fill="rgb(231,144,249)" stroke="rgb(231,144,249)" stroke-width="1" opacity="1" d="M 594.5 641 L 595 643.5 L 594 643.5 L 594.5 641 Z " /><path fill="rgb(231,144,249)" stroke="rgb(231,144,249)" stroke-width="1" opacity="1" d="M 622.5 641 L 621.5 643 L 622.5 641 Z " /><path fill="rgb(231,144,249)" stroke="rgb(231,144,249)" stroke-width="1" opacity="1" d="M 615.5 647 L 613.5 650 L 615.5 647 Z " /><path fill="rgb(231,144,249)" stroke="rgb(231,144,249)" stroke-width="1" opacity="1" d="M 597.5 648 L 598.5 650 L 597.5 648 Z " /><path fill="rgb(254,253,254)" stroke="rgb(254,253,254)" stroke-width="1" opacity="1" d="M 713.5 342 L 715.5 342 L 719.5 343 L 838 343 Q 836.8 346 840.5 345 L 845.5 344 L 845.5 345 L 837.5 346 L 836.5 345 L 711.5 345 L 710.5 346 L 693.5 347 L 682.5 350 L 682.5 349 L 693 346.5 L 692.5 345 L 697 346 L 697.5 344 L 704.5 344 L 706.5 344 L 713.5 342 Z " /><path fill="rgb(254,253,254)" stroke="rgb(254,253,254)" stroke-width="1" opacity="1" d="M 847.5 345 Q 850.1 344.3 849 347 L 844 346.5 L 847.5 345 Z " /><path fill="rgb(254,253,254)" stroke="rgb(254,253,254)" stroke-width="1" opacity="1" d="M 850.5 347 L 853 347.5 L 850.5 348 L 850.5 347 Z " /><path fill="rgb(254,253,254)" stroke="rgb(254,253,254)" stroke-width="1" opacity="1" d="M 863.5 349 L 862.5 351 L 861 350.5 L 863.5 349 Z " /><path fill="rgb(254,253,254)" stroke="rgb(254,253,254)" stroke-width="1" opacity="1" d="M 866.5 350 L 870 351 L 870.5 353 L 872.5 352 L 872.5 354 L 874 354.5 L 872.5 355 L 867 352.5 L 867.5 351 L 865.5 352 L 866.5 350 Z " /><path fill="rgb(254,253,254)" stroke="rgb(254,253,254)" stroke-width="1" opacity="1" d="M 676.5 351 L 678 351.5 L 671.5 354 L 671.5 353 L 676.5 351 Z " /><path fill="rgb(254,253,254)" stroke="rgb(254,253,254)" stroke-width="1" opacity="1" d="M 668.5 354 L 670 354.5 Q 639.9 366.9 621 390.5 L 608 410.5 L 600.5 429 L 600 426.5 Q 608.1 403.6 623 387.5 L 622.5 386 L 624 386.5 L 624 384 Q 627.8 385.5 627 382.5 L 632 378.5 L 633.5 376 Q 648.6 362.6 668.5 354 Z " /><path fill="rgb(254,253,254)" stroke="rgb(254,253,254)" stroke-width="1" opacity="1" d="M 884.5 358 L 883.5 360 L 884.5 358 Z " /><path fill="rgb(254,253,254)" stroke="rgb(254,253,254)" stroke-width="1" opacity="1" d="M 886.5 359 L 886.5 361 L 888.5 362 L 890 361.5 Q 888.8 364.3 887.5 362 L 885 360.5 L 886.5 359 Z " /><path fill="rgb(254,253,254)" stroke="rgb(254,253,254)" stroke-width="1" opacity="1" d="M 890.5 363 L 897.5 368 L 899 367.5 Q 897.3 370.8 895.5 367 Q 890.9 365.8 890.5 363 Z " /><path fill="rgb(254,253,254)" stroke="rgb(254,253,254)" stroke-width="1" opacity="1" d="M 899.5 369 L 901.5 372 L 899.5 369 Z " /><path fill="rgb(254,253,254)" stroke="rgb(254,253,254)" stroke-width="1" opacity="1" d="M 903.5 372 L 906.5 375 Q 907.8 372.8 909 375.5 L 908 376.5 L 910.5 380 L 903.5 372 Z " /><path fill="rgb(254,253,254)" stroke="rgb(254,253,254)" stroke-width="1" opacity="1" d="M 914.5 383 L 920.5 390 L 914.5 383 Z " /><path fill="rgb(254,253,254)" stroke="rgb(254,253,254)" stroke-width="1" opacity="1" d="M 921.5 391 L 923.5 394 L 921.5 391 Z " /><path fill="rgb(254,253,254)" stroke="rgb(254,253,254)" stroke-width="1" opacity="1" d="M 924.5 395 L 925.5 397 L 924.5 395 Z " /><path fill="rgb(254,253,254)" stroke="rgb(254,253,254)" stroke-width="1" opacity="1" d="M 927.5 397 L 928 399.5 L 926 398.5 L 927.5 397 Z " /><path fill="rgb(254,253,254)" stroke="rgb(254,253,254)" stroke-width="1" opacity="1" d="M 929.5 400 L 930 402.5 L 931 404.5 L 929 403.5 L 928 401.5 L 929.5 400 Z " /><path fill="rgb(254,253,254)" stroke="rgb(254,253,254)" stroke-width="1" opacity="1" d="M 931.5 406 L 938.5 420 L 940 419.5 L 939 422.5 L 940 422.5 L 940.5 421 Q 943.8 424.8 944 431.5 L 942.5 434 Q 937.8 417.9 931.5 406 Z " /><path fill="rgb(254,253,254)" stroke="rgb(254,253,254)" stroke-width="1" opacity="1" d="M 599.5 430 L 600 432.5 L 599 432.5 L 599.5 430 Z " /><path fill="rgb(254,253,254)" stroke="rgb(254,253,254)" stroke-width="1" opacity="1" d="M 944.5 433 L 945 434.5 L 944 437.5 L 945 441.5 L 944 441.5 L 943 435.5 L 944.5 433 Z " /><path fill="rgb(254,253,254)" stroke="rgb(254,253,254)" stroke-width="1" opacity="1" d="M 597.5 438 L 598 440.5 L 596.5 445 L 596 441.5 L 597.5 438 Z " /><path fill="rgb(254,253,254)" stroke="rgb(254,253,254)" stroke-width="1" opacity="1" d="M 945.5 443 L 947 447.5 L 948 460.5 L 947 460.5 L 945.5 443 Z " /><path fill="rgb(254,253,254)" stroke="rgb(254,253,254)" stroke-width="1" opacity="1" d="M 595.5 446 L 596 450.5 L 595 450.5 L 595.5 446 Z " /><path fill="rgb(254,253,254)" stroke="rgb(254,253,254)" stroke-width="1" opacity="1" d="M 833.5 450 L 836 450.5 L 833.5 451 L 833.5 450 Z " /><path fill="rgb(254,253,254)" stroke="rgb(254,253,254)" stroke-width="1" opacity="1" d="M 695.5 451 L 698 452.5 L 696.5 452 L 695.5 451 Z " /><path fill="rgb(254,253,254)" stroke="rgb(254,253,254)" stroke-width="1" opacity="1" d="M 830.5 451 L 832 451.5 L 828 453.5 Q 830.3 454.8 827.5 456 Q 824.9 455.3 826 458 L 823.5 458 L 821 459.5 L 825 456.5 L 824.5 455 L 830.5 451 Z " /><path fill="rgb(254,253,254)" stroke="rgb(254,253,254)" stroke-width="1" opacity="1" d="M 594.5 452 L 595 460.5 L 594 460.5 L 594.5 452 Z " /><path fill="rgb(254,253,254)" stroke="rgb(254,253,254)" stroke-width="1" opacity="1" d="M 693.5 452 L 694 454.5 L 692.5 456 Q 690.3 455.3 691 457.5 L 690 460 L 687 458.5 L 689 458.5 L 690 456.5 Q 687.8 455.3 690.5 454 L 692.5 455 L 693.5 452 Z " /><path fill="rgb(254,253,254)" stroke="rgb(254,253,254)" stroke-width="1" opacity="1" d="M 761.5 452 Q 764.5 453.5 761.5 455 L 759.5 454 Q 755.8 456 757.5 458 L 755 457.5 L 759.5 453 L 760.5 454 L 762 453.5 L 761.5 452 Z " /><path fill="rgb(254,253,254)" stroke="rgb(254,253,254)" stroke-width="1" opacity="1" d="M 847.5 452 L 853 456.5 L 852.5 458 L 854 458.5 L 853.5 460 L 856 461.5 L 857 473.5 L 850.5 484 L 848.5 485 L 847.5 483 L 849.5 483 L 852 481.5 L 853 479.5 Q 850.8 478.2 853.5 477 L 855 476.5 L 854 473.5 L 856 471.5 L 856 464 L 854 463.5 L 855 461.5 L 853 461.5 L 848.5 454 L 847 454.5 L 847.5 452 Z " /><path fill="rgb(254,253,254)" stroke="rgb(254,253,254)" stroke-width="1" opacity="1" d="M 713.5 453 L 719 458.5 L 717.5 460 L 716.5 457 L 712 454.5 L 713.5 453 Z " /><path fill="rgb(254,253,254)" stroke="rgb(254,253,254)" stroke-width="1" opacity="1" d="M 781.5 453 L 787 459.5 L 785 460.5 L 780 454.5 L 781.5 453 Z " /><path fill="rgb(254,253,254)" stroke="rgb(254,253,254)" stroke-width="1" opacity="1" d="M 686.5 460 L 689 461.5 L 687 467 Q 684 465.8 685 469.5 L 687 471.5 L 687 474.5 L 690 480.5 L 689.5 483 Q 683 478 684 465.5 L 686.5 460 Z " /><path fill="rgb(254,253,254)" stroke="rgb(254,253,254)" stroke-width="1" opacity="1" d="M 720.5 462 L 721 464.5 L 720 464.5 L 720.5 462 Z " /><path fill="rgb(254,253,254)" stroke="rgb(254,253,254)" stroke-width="1" opacity="1" d="M 948.5 462 L 949 493.5 L 950 496.5 L 949 496.5 L 948.5 494 L 948 500.5 L 949 505.5 L 948 505.5 L 947.5 501 L 946.5 506 L 946 501.5 L 948 493.5 L 948.5 462 Z " /><path fill="rgb(254,253,254)" stroke="rgb(254,253,254)" stroke-width="1" opacity="1" d="M 752.5 463 L 753 465.5 L 752 465.5 L 752.5 463 Z " /><path fill="rgb(254,253,254)" stroke="rgb(254,253,254)" stroke-width="1" opacity="1" d="M 788.5 463 L 789 465.5 L 787.5 470 L 787 466.5 L 788.5 463 Z " /><path fill="rgb(254,253,254)" stroke="rgb(254,253,254)" stroke-width="1" opacity="1" d="M 592 464 L 594 464.5 L 594 578.5 L 593 581.5 L 594 582.5 L 594 607.5 Q 591.2 609.3 593 615.5 L 594 616.5 L 594 624.5 L 593 628.5 L 594 629.5 L 594 640.5 L 592.5 644 L 592 469.5 L 593 467.5 L 592 464 Z " /><path fill="rgb(254,253,254)" stroke="rgb(254,253,254)" stroke-width="1" opacity="1" d="M 819.5 465 L 820 472.5 L 819 472.5 L 819.5 465 Z " /><path fill="rgb(254,253,254)" stroke="rgb(254,253,254)" stroke-width="1" opacity="1" d="M 751.5 468 L 752 470.5 L 751 470.5 L 751.5 468 Z " /><path fill="rgb(254,253,254)" stroke="rgb(254,253,254)" stroke-width="1" opacity="1" d="M 950.5 468 L 951 486.5 L 950 486.5 L 950.5 468 Z " /><path fill="rgb(254,253,254)" stroke="rgb(254,253,254)" stroke-width="1" opacity="1" d="M 753.5 471 L 756 477.5 L 755.5 479 Q 758.1 478.2 757 481.5 L 758.5 484 L 754 478.5 L 754.5 477 L 753 476.5 L 753.5 475 Q 751.3 475.8 752 473.5 L 753.5 471 Z " /><path fill="rgb(254,253,254)" stroke="rgb(254,253,254)" stroke-width="1" opacity="1" d="M 720.5 472 L 721 474.5 L 720 474.5 L 720.5 472 Z " /><path fill="rgb(254,253,254)" stroke="rgb(254,253,254)" stroke-width="1" opacity="1" d="M 718.5 475 L 720 477.5 Q 718.5 480.5 717 477.5 L 719 477.5 L 718.5 475 Z " /><path fill="rgb(254,253,254)" stroke="rgb(254,253,254)" stroke-width="1" opacity="1" d="M 786.5 475 L 788 477.5 L 785 479.5 L 786 480.5 L 782.5 484 L 781 482.5 L 785 478.5 L 786.5 475 Z " /><path fill="rgb(254,253,254)" stroke="rgb(254,253,254)" stroke-width="1" opacity="1" d="M 716.5 479 L 718 480.5 L 714.5 484 L 716.5 479 Z " /><path fill="rgb(254,253,254)" stroke="rgb(254,253,254)" stroke-width="1" opacity="1" d="M 822.5 479 L 825 480 L 827.5 484 L 835.5 487 L 840.5 487 L 844.5 486 L 844.5 487 L 835.5 488 Q 825.4 486.1 822.5 479 Z " /><path fill="rgb(254,253,254)" stroke="rgb(254,253,254)" stroke-width="1" opacity="1" d="M 691.5 483 L 692.5 485 L 691.5 483 Z " /><path fill="rgb(254,253,254)" stroke="rgb(254,253,254)" stroke-width="1" opacity="1" d="M 779.5 483 Q 782.5 484.5 779.5 486 L 768.5 488 L 764 486.5 L 773.5 485 L 776.5 486 L 780 484.5 L 779.5 483 Z M 770 486 L 770 487 L 773 487 L 770 486 Z " /><path fill="rgb(254,253,254)" stroke="rgb(254,253,254)" stroke-width="1" opacity="1" d="M 695.5 484 L 697 484.5 L 696.5 486 L 705.5 485 L 709 486.5 L 701.5 488 L 694 485.5 L 695.5 484 Z " /><path fill="rgb(254,253,254)" stroke="rgb(254,253,254)" stroke-width="1" opacity="1" d="M 712.5 484 L 711.5 486 L 710 485.5 L 712.5 484 Z " /><path fill="rgb(254,253,254)" stroke="rgb(254,253,254)" stroke-width="1" opacity="1" d="M 763.5 484 L 762.5 486 L 763.5 484 Z " /><path fill="rgb(254,253,254)" stroke="rgb(254,253,254)" stroke-width="1" opacity="1" d="M 945.5 507 L 946 510.5 L 945 510.5 L 945.5 507 Z " /><path fill="rgb(254,253,254)" stroke="rgb(254,253,254)" stroke-width="1" opacity="1" d="M 944.5 512 L 945 514.5 L 944 514.5 L 944.5 512 Z " /><path fill="rgb(254,253,254)" stroke="rgb(254,253,254)" stroke-width="1" opacity="1" d="M 943.5 516 L 944 519.5 L 943 522.5 L 943.5 524 L 942 523.5 L 943 526.5 L 942 526.5 L 941.5 525 L 941 527.5 L 942 529.5 L 941 529.5 L 940.5 528 L 939.5 530 L 939 528.5 L 943.5 516 Z " /><path fill="rgb(254,253,254)" stroke="rgb(254,253,254)" stroke-width="1" opacity="1" d="M 938.5 531 L 940 534.5 L 938.5 537 L 937.5 535 L 935 540.5 L 935 542.5 L 934.5 544 L 933 543.5 L 929.5 549 L 930 547.5 L 938.5 531 Z " /><path fill="rgb(254,253,254)" stroke="rgb(254,253,254)" stroke-width="1" opacity="1" d="M 928.5 550 L 928 551.5 L 925 556.5 L 927 556.5 L 924.5 560 L 923.5 558 L 917 566.5 L 920 565.5 L 911 572.5 L 912 573.5 L 908.5 577 L 906.5 576 L 900 581.5 L 901.5 582 L 903 581.5 L 900.5 583 Q 899 580.5 897.5 584 L 895 585.5 Q 897.2 586.8 894.5 588 L 894.5 586 L 892 587.5 Q 894.3 588.8 891.5 590 L 891.5 588 L 889 589.5 L 889.5 591 L 887.5 590 L 878 595.5 L 878.5 597 L 876 595.5 Q 898.9 584.9 915 567.5 L 928.5 550 Z " /><path fill="rgb(254,253,254)" stroke="rgb(254,253,254)" stroke-width="1" opacity="1" d="M 873.5 596 L 875 596.5 L 873 597.5 L 873.5 599 L 871.5 598 L 866.5 600 L 866.5 599 L 873.5 596 Z " /><path fill="rgb(254,253,254)" stroke="rgb(254,253,254)" stroke-width="1" opacity="1" d="M 863.5 600 L 865 600.5 L 860.5 602 L 860.5 601 L 863.5 600 Z " /><path fill="rgb(254,253,254)" stroke="rgb(254,253,254)" stroke-width="1" opacity="1" d="M 856.5 602 L 862 603.5 L 857.5 605 L 857.5 604 L 859 603.5 L 856.5 603 L 852 604.5 L 856 605.5 L 852.5 606 L 847.5 605 L 847.5 606 L 850 606.5 L 847.5 607 Q 846.2 604.7 841.5 606 Q 839.8 608.8 833.5 607 L 833.5 606 Q 847.2 606.2 856.5 602 Z " /><path fill="rgb(254,253,254)" stroke="rgb(254,253,254)" stroke-width="1" opacity="1" d="M 679.5 607 L 832 607.5 L 679.5 608 L 679.5 607 Z " /><path fill="rgb(254,253,254)" stroke="rgb(254,253,254)" stroke-width="1" opacity="1" d="M 675.5 609 L 698 609.5 L 675.5 610 L 675.5 609 Z " /><path fill="rgb(254,253,254)" stroke="rgb(254,253,254)" stroke-width="1" opacity="1" d="M 702.5 609 L 708 609.5 L 702.5 610 L 702.5 609 Z " /><path fill="rgb(254,253,254)" stroke="rgb(254,253,254)" stroke-width="1" opacity="1" d="M 719.5 609 L 730 609.5 L 719.5 610 L 719.5 609 Z " /><path fill="rgb(254,253,254)" stroke="rgb(254,253,254)" stroke-width="1" opacity="1" d="M 731.5 609 L 741 609.5 L 731.5 610 L 731.5 609 Z " /><path fill="rgb(254,253,254)" stroke="rgb(254,253,254)" stroke-width="1" opacity="1" d="M 760.5 609 L 773 609.5 L 760.5 610 L 760.5 609 Z " /><path fill="rgb(254,253,254)" stroke="rgb(254,253,254)" stroke-width="1" opacity="1" d="M 784.5 609 L 791 609.5 L 784.5 610 L 784.5 609 Z " /><path fill="rgb(254,253,254)" stroke="rgb(254,253,254)" stroke-width="1" opacity="1" d="M 664.5 613 Q 667.5 614.5 664.5 616 L 657.5 620 L 656.5 618 L 658 618.5 L 659.5 616 L 661.5 617 L 661.5 615 L 664.5 613 Z " /><path fill="rgb(254,253,254)" stroke="rgb(254,253,254)" stroke-width="1" opacity="1" d="M 654.5 619 L 655.5 621 L 654.5 619 Z " /><path fill="rgb(254,253,254)" stroke="rgb(254,253,254)" stroke-width="1" opacity="1" d="M 652.5 620 L 653.5 622 L 651 621.5 L 652.5 620 Z " /><path fill="rgb(254,253,254)" stroke="rgb(254,253,254)" stroke-width="1" opacity="1" d="M 649.5 622 L 650.5 624 L 649.5 622 Z " /><path fill="rgb(254,253,254)" stroke="rgb(254,253,254)" stroke-width="1" opacity="1" d="M 646.5 624 L 647.5 626 L 646 625.5 L 644.5 628 L 643 627.5 L 641.5 630 L 639 629.5 L 642 628.5 L 643.5 626 L 645 626.5 L 646.5 624 Z " /><path fill="rgb(254,253,254)" stroke="rgb(254,253,254)" stroke-width="1" opacity="1" d="M 637.5 630 L 636.5 632 L 637.5 630 Z " /><path fill="rgb(254,253,254)" stroke="rgb(254,253,254)" stroke-width="1" opacity="1" d="M 634.5 632 Q 637.5 633.5 634.5 635 L 631.5 637 L 629 636.5 L 633 634.5 L 634.5 632 Z " /><path fill="rgb(254,253,254)" stroke="rgb(254,253,254)" stroke-width="1" opacity="1" d="M 627.5 637 Q 630.5 638.5 627.5 640 Q 626.3 637.8 625 640.5 L 625.5 642 L 624 641.5 L 618.5 648 L 616 648.5 L 616.5 650 L 613.5 652 L 612.5 650 Q 613.8 652.3 615 649.5 L 620.5 643 Q 621.8 645.3 623 642.5 L 627.5 637 Z " /><path fill="rgb(254,253,254)" stroke="rgb(254,253,254)" stroke-width="1" opacity="1" d="M 594.5 644 L 593.5 646 L 594.5 644 Z " /><path fill="rgb(254,253,254)" stroke="rgb(254,253,254)" stroke-width="1" opacity="1" d="M 595.5 646 L 596.5 648 L 595.5 646 Z " /><path fill="rgb(254,253,254)" stroke="rgb(254,253,254)" stroke-width="1" opacity="1" d="M 603.5 653 L 606 653.5 L 603.5 654 L 603.5 653 Z " /><path fill="rgb(254,253,254)" stroke="rgb(254,253,254)" stroke-width="1" opacity="1" d="M 607.5 653 L 610 653.5 L 607.5 654 L 607.5 653 Z " /><path fill="rgb(254,254,254)" stroke="rgb(254,254,254)" stroke-width="1" opacity="1" d="M 0 0 L 1536 0 L 1536 1024 L 0 1024 L 0 0 Z M 714 342 L 707 344 L 705 344 L 698 344 L 697 346 L 693 345 L 693 347 L 669 354 Q 649 363 634 376 L 632 379 L 627 383 Q 628 385 624 384 L 624 387 Q 612 399 604 417 L 600 427 L 594 453 L 594 464 L 592 464 L 593 468 L 592 470 L 593 644 L 594 641 L 595 647 L 602 652 Q 611 654 615 649 L 617 650 L 616 649 L 619 648 L 618 647 L 623 642 L 624 643 L 624 642 L 633 634 L 635 635 L 634 634 L 640 630 Q 641 626 643 629 L 643 628 Q 644 625 646 627 L 646 626 L 658 618 L 657 620 L 659 620 L 661 616 L 663 617 L 665 616 L 664 615 L 675 608 L 832 608 L 833 607 L 841 607 Q 882 600 908 576 Q 923 562 933 544 L 935 544 L 934 542 L 944 520 L 949 494 L 949 463 L 948 462 L 947 448 L 943 435 L 944 432 L 942 423 L 941 425 Q 936 411 928 401 L 928 398 L 927 398 L 921 390 Q 902 366 873 354 L 873 352 L 871 353 L 870 351 L 868 352 L 853 347 Q 848 348 849 345 L 847 346 L 843 346 L 846 345 L 846 344 L 841 345 Q 837 346 838 343 L 720 343 L 716 342 L 714 342 Z M 951 468 L 950 487 L 951 487 L 951 468 Z M 950 494 L 949 497 L 950 497 L 950 494 Z M 949 501 L 948 506 L 949 506 L 949 501 Z M 860 603 L 860 604 L 862 604 L 860 603 Z M 853 605 L 853 606 L 856 606 L 853 605 Z M 848 606 L 848 607 L 850 607 L 848 606 Z M 676 609 L 676 610 L 698 610 L 676 609 Z M 703 609 L 703 610 L 708 610 L 703 609 Z M 720 609 L 720 610 L 730 610 L 720 609 Z M 732 609 L 732 610 L 741 610 L 732 609 Z M 761 609 L 761 610 L 773 610 L 761 609 Z M 785 609 L 785 610 L 791 610 L 785 609 Z M 604 653 L 604 654 L 606 654 L 604 653 Z M 608 653 L 608 654 L 610 654 L 608 653 Z " /><path fill="rgb(254,254,254)" stroke="rgb(254,254,254)" stroke-width="1" opacity="1" d="M 701.5 450 Q 709 450 713 453.5 Q 710.8 454.8 713.5 456 L 719 459.5 L 721 465.5 L 721 471.5 Q 719.5 480 713.5 484 L 706.5 486 Q 705 483.5 699.5 485 L 696.5 486 L 696.5 484 L 693.5 485 L 689 481.5 L 689 479.5 L 685 467 Q 688 468.3 687 464.5 L 689 461.5 L 687 461 L 686.5 463 L 686 461.5 L 691.5 454 L 701.5 450 Z M 691 456 L 688 460 L 690 460 L 691 458 L 691 456 Z " /><path fill="rgb(254,254,254)" stroke="rgb(254,254,254)" stroke-width="1" opacity="1" d="M 768.5 450 Q 779.7 449.8 784 456.5 Q 781.5 458 785 459.5 L 785.5 461 L 787 460.5 L 789 466.5 L 789 472.5 L 787.5 476 L 786 475.5 L 787 477.5 L 785 477.5 L 786 479.5 Q 782.8 485.3 774.5 486 L 769.5 485 L 769.5 486 L 773 486.5 L 769.5 487 Q 768.2 484.7 763.5 486 L 757 481.5 Q 758.1 478.2 755.5 479 Q 752.7 477.8 755 476.5 L 753.5 471 L 752.5 473 L 752 466.5 Q 753.8 457.3 760.5 453 L 768.5 450 Z M 788 466 L 787 470 L 788 470 L 788 466 Z " /><path fill="rgb(254,254,254)" stroke="rgb(254,254,254)" stroke-width="1" opacity="1" d="M 836.5 450 Q 845.5 449.5 849 454.5 L 849.5 456 Q 851.3 453.3 853 457.5 L 852 459.5 L 854 459.5 L 853 461.5 L 855 461.5 L 854 463.5 L 856 464 L 856 471.5 L 854 475.5 L 854.5 477 L 852 478.5 L 852 480.5 L 850.5 483 L 845.5 486 L 835.5 487 L 827.5 484 L 825 481.5 Q 825.8 479.3 823.5 480 Q 817.9 475.6 820 463.5 L 823.5 458 L 826 458 Q 824.9 455.3 827.5 456 L 828.5 453 L 836.5 450 Z " /><path fill="rgb(254,254,254)" stroke="rgb(254,254,254)" stroke-width="1" opacity="1" d="M 593.5 579 L 594 581.5 L 593 581.5 L 593.5 579 Z " /><path fill="rgb(254,254,254)" stroke="rgb(254,254,254)" stroke-width="1" opacity="1" d="M 593.5 608 L 594 615.5 L 593 615.5 L 593.5 608 Z " /><path fill="rgb(254,254,254)" stroke="rgb(254,254,254)" stroke-width="1" opacity="1" d="M 593.5 625 L 594 628.5 L 593 628.5 L 593.5 625 Z " /><path fill="rgb(56,111,227)" stroke="rgb(56,111,227)" stroke-width="1" opacity="1" d="M 816.5 346 L 840.5 346 Q 842 348.5 847.5 347 L 873.5 355 Q 900.2 366.8 918 387.5 L 934 411.5 L 943 434.5 L 948 461.5 L 948 493.5 L 947 494.5 L 945 511.5 L 939 530.5 Q 928.5 555 910.5 572 Q 895.6 586.6 875.5 596 L 859.5 602 L 840.5 606 Q 834.2 604.3 832.5 607 L 675.5 607 Q 650.7 619.2 629.5 635 L 611.5 651 L 604.5 652 Q 598.8 650.8 596 646.5 L 594 640.5 L 594 600.5 L 595 599.5 L 595.5 527 L 596.5 542 L 597.5 534 L 599 534.5 L 604 528.5 L 605 523 L 611 525 Q 609.8 522 613.5 523 L 616 520.5 L 620 509.5 L 631 488.5 L 647 463.5 Q 664.1 439.1 685.5 419 Q 712.3 393.3 745.5 374 L 781.5 357 L 799.5 351 L 814.5 348 L 816.5 346 Z M 698 450 L 693 452 Q 687 456 684 464 Q 682 475 687 481 Q 691 487 700 488 Q 709 489 714 485 Q 720 481 722 473 Q 723 462 718 457 L 709 450 L 698 450 Z M 765 450 L 761 452 Q 753 457 751 467 Q 750 475 754 480 Q 758 486 768 488 L 779 487 L 785 483 L 790 473 L 790 467 L 787 459 L 777 450 L 765 450 Z M 833 450 L 827 453 Q 821 457 819 464 Q 817 476 823 482 Q 827 487 835 488 Q 845 489 850 485 Q 857 481 858 471 Q 858 462 854 458 Q 850 452 844 450 L 833 450 Z M 611 529 L 609 533 L 611 533 L 611 529 Z M 609 536 L 608 539 L 609 539 L 609 536 Z " /><path fill="rgb(56,111,227)" stroke="rgb(56,111,227)" stroke-width="1" opacity="1" d="M 606.5 518 L 607 521.5 L 606 521.5 L 606.5 518 Z " /></svg>